<svg width="100" height="100" viewBox="0 0 100 100" fill="none" xmlns="http://www.w3.org/2000/svg">
<path d="M8.3418 50.0084C8.34664 70.5058 23.2518 87.9585 43.496 91.1709V62.05H32.9251V50.0084H43.5085V40.8417C43.0353 36.4981 44.519 32.1692 47.557 29.0289C50.595 25.8887 54.8724 24.2626 59.2293 24.5917C62.3565 24.6422 65.4759 24.9207 68.5626 25.425V35.6709H63.296C61.4828 35.4334 59.6599 36.0322 58.3408 37.2986C57.0217 38.5651 56.3492 40.362 56.5126 42.1834V50.0084H68.0585L66.2126 62.0542H56.5126V91.1709C78.4063 87.7108 93.7589 67.7158 91.4481 45.6712C89.1373 23.6266 69.9722 7.24973 47.8369 8.40493C25.7016 9.56014 8.34532 27.843 8.3418 50.0084Z" fill="#2E3A59"/>
</svg>
