<svg width="100" height="100" viewBox="0 0 100 100" fill="none" xmlns="http://www.w3.org/2000/svg">
<path d="M50.1082 8.33325C29.7205 8.33063 12.3408 23.1165 9.07657 43.2413C5.81234 63.3661 17.6274 82.8873 36.9707 89.3291C39.0541 89.7041 39.7999 88.4249 39.7999 87.3249C39.7999 86.3374 39.7666 83.7207 39.7541 80.2416C28.1916 82.7416 25.7499 74.6666 25.7499 74.6666C24.9887 72.1539 23.3523 69.9971 21.1374 68.5874C17.3874 66.0083 21.4249 66.0666 21.4249 66.0666C24.0944 66.4326 26.4439 68.0143 27.7874 70.3499C28.9246 72.4176 30.8406 73.9456 33.1095 74.5942C35.3784 75.2428 37.8125 74.9583 39.8707 73.8041C40.0642 71.6958 41.0021 69.7253 42.5166 68.2458C33.2916 67.1999 23.5916 63.6333 23.5916 47.7041C23.5404 43.5841 25.0703 39.6012 27.8666 36.5749C26.6014 32.9887 26.7504 29.0551 28.2832 25.5749C28.2832 25.5749 31.7707 24.4541 39.7082 29.8291C46.5159 27.9624 53.7005 27.9624 60.5082 29.8291C68.4499 24.4499 71.9332 25.5749 71.9332 25.5749C73.4732 29.0535 73.6223 32.9898 72.3499 36.5749C75.1564 39.6009 76.6851 43.5942 76.6166 47.7208C76.6166 63.6916 66.9082 67.1999 57.6499 68.2291C59.6471 70.271 60.6713 73.0722 60.4624 75.9208C60.4624 81.4791 60.4124 85.9624 60.4124 87.3249C60.4124 88.4374 61.1541 89.7291 63.2749 89.3207C82.6102 82.8681 94.4126 63.3457 91.1416 43.2262C87.8707 23.1068 70.4918 8.32859 50.1082 8.33325Z" fill="#2E3A59"/>
</svg>
