<svg width="100" height="100" viewBox="0 0 100 100" fill="none" xmlns="http://www.w3.org/2000/svg">
<path d="M61.0042 91.7667C56.1686 91.7506 52.2565 87.8273 52.2542 82.9917V74.2125H61.0042C65.8528 74.2125 69.7834 78.1431 69.7834 82.9917C69.7834 87.8403 65.8528 91.7709 61.0042 91.7709V91.7667ZM38.9959 91.7667C34.1603 91.7506 30.2481 87.8273 30.2459 82.9917V61.0167C30.2459 57.8854 31.9164 54.992 34.6282 53.4263C37.3399 51.8607 40.681 51.8607 43.3927 53.4263C46.1045 54.992 47.775 57.8854 47.775 61.0167V82.9917C47.7727 87.8387 43.8428 91.7667 38.9959 91.7667ZM82.9542 69.7959H61.0042C56.1567 69.7959 52.2271 65.8662 52.2271 61.0188C52.2271 56.1713 56.1567 52.2417 61.0042 52.2417H82.9542C87.8016 52.2417 91.7313 56.1713 91.7313 61.0188C91.7313 65.8662 87.8016 69.7959 82.9542 69.7959ZM17.05 69.7959C12.2026 69.7959 8.27295 65.8662 8.27295 61.0188C8.27295 56.1713 12.2026 52.2417 17.05 52.2417H25.8V61.0167C25.8 65.862 21.8745 69.7913 17.0292 69.7959H17.05ZM82.9542 47.7584H74.2042V38.9834C74.218 34.1541 78.1416 30.2492 82.9708 30.2584C87.8 30.2676 91.7087 34.1874 91.7042 39.0167C91.6996 43.8459 87.7834 47.7584 82.9542 47.7584ZM61.0042 47.7584C56.1686 47.7423 52.2565 43.819 52.2542 38.9834V17.0084C52.2542 13.8771 53.9247 10.9837 56.6365 9.41801C59.3483 7.85237 62.6893 7.85237 65.4011 9.41801C68.1128 10.9837 69.7834 13.8771 69.7834 17.0084V38.9834C69.7811 43.8303 65.8512 47.7584 61.0042 47.7584ZM38.9959 47.7584H17.05C12.2026 47.7584 8.27295 43.8287 8.27295 38.9813C8.27295 34.1338 12.2026 30.2042 17.05 30.2042H38.9959C43.8433 30.2042 47.7729 34.1338 47.7729 38.9813C47.7729 43.8287 43.8433 47.7584 38.9959 47.7584ZM47.7459 25.7876H38.9959C35.4448 25.7976 32.2377 23.6666 30.8714 20.3889C29.5051 17.1112 30.2489 13.3332 32.7557 10.818C35.2625 8.30289 39.038 7.54652 42.3202 8.90193C45.6024 10.2573 47.7442 13.4573 47.7459 17.0084V25.7834V25.7876Z" fill="#2E3A59"/>
</svg>
